<svg width="166" height="20" viewBox="0 0 166 20" fill="none" xmlns="http://www.w3.org/2000/svg">
<path d="M16.1849 18.7625H0.549805V0.598633H15.8659L25.164 9.66463L16.1849 18.7625ZM2.97643 16.3359H15.171L20.2875 11.1507C20.4759 10.96 20.6247 10.7339 20.7254 10.4854C20.826 10.2369 20.8766 9.97094 20.874 9.70285C20.8715 9.43476 20.816 9.1698 20.7107 8.92325C20.6054 8.6767 20.4524 8.45341 20.2604 8.26623L14.8823 3.02288H2.97565L2.97643 16.3359Z" fill="#000C33"/>
<path d="M16.4121 19.3083H0V0.0507812H16.0906L25.9424 9.65761L16.4121 19.3083ZM1.09607 18.213H15.955L24.3884 9.67036L15.6447 1.14364H1.09529L1.09607 18.213ZM15.399 16.8817H2.42668V2.47661H15.1023L20.64 7.87551C20.8835 8.11308 21.0777 8.39644 21.2113 8.7093C21.345 9.02217 21.4154 9.35836 21.4187 9.69855C21.422 10.0387 21.3579 10.3762 21.2303 10.6916C21.1027 11.007 20.914 11.294 20.6751 11.5362L15.399 16.8817ZM3.52353 15.7864H14.9412L19.8965 10.7672C20.034 10.6277 20.1427 10.4625 20.2161 10.2809C20.2895 10.0993 20.3263 9.90498 20.3244 9.70912C20.3225 9.51326 20.2818 9.31972 20.2049 9.13961C20.1279 8.95951 20.016 8.7964 19.8758 8.65967L14.6579 3.57185H3.5227L3.52353 15.7864Z" fill="#000C33"/>
<path d="M7.94558 10.8951H1.76172V8.46843H6.94684L14.5171 0.949219L16.2266 2.67147L7.94558 10.8951Z" fill="#000C33"/>
<path d="M7.44531 11.4435H2.97815C2.51115 11.4435 2.06324 11.2581 1.73294 10.9279C1.40265 10.5978 1.21701 10.15 1.2168 9.68298C1.21701 9.21598 1.40265 8.76819 1.73294 8.43804C2.06324 8.1079 2.51115 7.92243 2.97815 7.92243H5.99191C6.45667 7.9224 6.90257 7.7386 7.23234 7.41111L13.2694 1.41949C13.6009 1.09048 14.0494 0.906569 14.5165 0.908214C14.9835 0.90986 15.4307 1.09694 15.7599 1.42828C15.9228 1.59247 16.0519 1.78715 16.1396 2.00122C16.2273 2.21529 16.272 2.44453 16.2711 2.67587C16.2703 2.90721 16.2238 3.13611 16.1344 3.3495C16.0451 3.56289 15.9145 3.75659 15.7503 3.91952L8.68336 10.9338C8.35386 11.26 7.909 11.4432 7.44531 11.4435ZM2.97815 10.3483H6.7274C7.36787 10.3483 7.98239 10.0951 8.43689 9.64388L14.9885 3.14097C15.0503 3.07918 15.0994 3.00579 15.1329 2.92503C15.1663 2.84428 15.1835 2.75771 15.1835 2.6703C15.1835 2.58288 15.1663 2.49631 15.1329 2.41556C15.0994 2.3348 15.0503 2.26144 14.9885 2.19965C14.9267 2.13771 14.8534 2.08858 14.7726 2.05504C14.6919 2.02151 14.6053 2.00424 14.5178 2.00424C14.4304 2.00424 14.3438 2.02151 14.263 2.05504C14.1822 2.08858 14.1089 2.13771 14.0472 2.19965L7.88487 8.31649C7.42997 8.76765 6.81527 9.02082 6.17459 9.02087H2.97815C2.80163 9.02087 2.63232 9.09095 2.50743 9.21569C2.38254 9.34044 2.31225 9.50965 2.31204 9.68617C2.3133 9.86131 2.38351 10.0289 2.50743 10.1527C2.63135 10.2764 2.79902 10.3464 2.97416 10.3475L2.97815 10.3483Z" fill="#000C33"/>
<path d="M43.5542 1.11629C44.6699 1.59401 45.6215 2.3876 46.2919 3.39934C46.9201 4.4577 47.2517 5.66574 47.2517 6.8965C47.2517 8.12726 46.9201 9.3353 46.2919 10.3937C45.6266 11.4099 44.6734 12.2048 43.5542 12.6767C42.2283 13.2324 40.8002 13.5023 39.363 13.4688H35.7039V18.4769H31.5V0.311398H39.3622C40.801 0.277461 42.2303 0.551909 43.5542 1.11629ZM42.0098 9.225C42.3419 8.93983 42.6038 8.58188 42.7749 8.17898C42.9461 7.77607 43.0219 7.33909 42.9966 6.90208C43.0235 6.46113 42.9486 6.01991 42.7774 5.61264C42.6063 5.20536 42.3436 4.84298 42.0098 4.55362C41.1742 3.95387 40.1554 3.66468 39.1293 3.73597H35.7039V10.0427H39.1293C40.1556 10.1144 41.1747 9.82551 42.0106 9.2258L42.0098 9.225Z" fill="#000C33"/>
<path d="M61.8082 18.4768L58.3047 13.417H54.4373V18.4768H50.2334V0.31138H58.0956C59.5341 0.277557 60.9632 0.552003 62.2868 1.11627C63.4026 1.59399 64.3542 2.38758 65.0245 3.39932C65.681 4.44771 66.014 5.66632 65.9818 6.90286C66.0308 8.12825 65.6975 9.33856 65.028 10.3661C64.3586 11.3936 63.3861 12.1874 62.2454 12.6376L66.32 18.4768H61.8082ZM60.7432 4.55521C59.9076 3.95546 58.8888 3.66624 57.8627 3.73753H54.4373V10.069H57.8627C58.8907 10.1407 59.9109 9.84687 60.7432 9.23935C61.0558 8.93464 61.3043 8.57044 61.4739 8.1682C61.6436 7.76596 61.731 7.33381 61.731 6.89726C61.731 6.46072 61.6436 6.02859 61.4739 5.62635C61.3043 5.22411 61.0558 4.85992 60.7432 4.55521Z" fill="#000C33"/>
<path d="M73.0092 17.5688C71.5377 16.7962 70.3076 15.6331 69.4538 14.2072C68.6113 12.743 68.168 11.0832 68.168 9.39386C68.168 7.70453 68.6113 6.04475 69.4538 4.58046C70.3076 3.15459 71.5377 1.99152 73.0092 1.21891C74.5871 0.417616 76.332 0 78.1018 0C79.8715 0 81.6163 0.417616 83.1943 1.21891C84.6764 2.00916 85.9158 3.18738 86.7801 4.62759C87.6443 6.0678 88.1008 7.71583 88.1008 9.39545C88.1008 11.0751 87.6443 12.7231 86.7801 14.1633C85.9158 15.6035 84.6764 16.7817 83.1943 17.572C81.6163 18.3733 79.8715 18.7909 78.1018 18.7909C76.332 18.7909 74.5871 18.3733 73.0092 17.572V17.5688ZM81.015 14.4673C81.8721 13.982 82.5773 13.2677 83.0516 12.4044C83.5369 11.4754 83.7904 10.4428 83.7904 9.39464C83.7904 8.34649 83.5369 7.3139 83.0516 6.3849C82.5773 5.52163 81.8721 4.80737 81.015 4.32202C80.1233 3.83608 79.124 3.58144 78.1085 3.58144C77.093 3.58144 76.0938 3.83608 75.2021 4.32202C74.3441 4.80676 73.6383 5.52114 73.1639 6.3849C72.6786 7.3139 72.4251 8.34649 72.4251 9.39464C72.4251 10.4428 72.6786 11.4754 73.1639 12.4044C73.6383 13.2682 74.3441 13.9826 75.2021 14.4673C76.094 14.9525 77.0932 15.2067 78.1085 15.2067C79.1239 15.2067 80.1231 14.9525 81.015 14.4673Z" fill="#000C33"/>
<path d="M103.264 1.11627C104.38 1.59423 105.331 2.38777 106.002 3.39932C106.63 4.45771 106.962 5.66574 106.962 6.89648C106.962 8.12723 106.63 9.33526 106.002 10.3937C105.336 11.4098 104.383 12.2046 103.264 12.6767C101.938 13.2324 100.51 13.5023 99.073 13.4688H95.4139V18.4768H91.21V0.31138H99.073C100.511 0.277557 101.941 0.552003 103.264 1.11627ZM101.72 9.22498C102.052 8.93978 102.314 8.5818 102.485 8.17889C102.656 7.77598 102.731 7.33902 102.706 6.90206C102.733 6.46114 102.658 6.01987 102.487 5.61255C102.316 5.20523 102.054 4.84284 101.72 4.5536C100.884 3.95385 99.8654 3.66466 98.8393 3.73595H95.4139V10.0427H98.8393C99.8656 10.1144 100.885 9.82543 101.721 9.22579L101.72 9.22498Z" fill="#000C33"/>
<path d="M109.948 0.310947H118.2C120.007 0.274538 121.798 0.661082 123.429 1.43971C124.885 2.14019 126.109 3.24303 126.958 4.61777C127.783 6.07402 128.216 7.71919 128.216 9.39289C128.216 11.0666 127.783 12.7117 126.958 14.168C126.109 15.5433 124.885 16.6467 123.429 17.3476C121.797 18.126 120.007 18.5123 118.2 18.4756H109.948V0.310947ZM117.992 15.0247C119.584 15.1059 121.144 14.562 122.34 13.5091C123.382 12.3929 123.962 10.9227 123.962 9.39566C123.962 7.8686 123.382 6.39847 122.34 5.28227C121.144 4.22938 119.584 3.6855 117.992 3.76663H114.155V15.0287L117.992 15.0247Z" fill="#000C33"/>
<path d="M145.449 15.1025V18.476H131.384V0.310547H145.112V3.68485H135.562V7.62873H143.996V10.8993H135.562V15.1033L145.449 15.1025Z" fill="#000C33"/>
<path d="M166 0.311177L158.138 18.4766H153.99L146.152 0.311177H150.694L156.22 13.2851L161.826 0.30957L166 0.311177Z" fill="#000C33"/>
</svg>
